<svg width="1280" height="360" viewBox="0 0 1280 360" fill="none" xmlns="http://www.w3.org/2000/svg">
  <defs>
    <linearGradient id="bg" x1="72" y1="36" x2="1210" y2="334" gradientUnits="userSpaceOnUse">
      <stop stop-color="#0F172A"/>
      <stop offset="0.5" stop-color="#1D4ED8"/>
      <stop offset="1" stop-color="#0EA5A4"/>
    </linearGradient>
    <linearGradient id="card" x1="0" y1="0" x2="1" y2="1">
      <stop stop-color="#FFFFFF" stop-opacity="0.24"/>
      <stop offset="1" stop-color="#FFFFFF" stop-opacity="0.08"/>
    </linearGradient>
    <filter id="soft" x="-40%" y="-40%" width="180%" height="180%">
      <feGaussianBlur stdDeviation="22"/>
    </filter>
  </defs>

  <rect x="18" y="18" width="1244" height="324" rx="28" fill="url(#bg)"/>
  <rect x="18.5" y="18.5" width="1243" height="323" rx="27.5" stroke="#FFFFFF" stroke-opacity="0.24"/>

  <circle cx="1080" cy="94" r="84" fill="#22D3EE" fill-opacity="0.2" filter="url(#soft)"/>
  <circle cx="184" cy="296" r="70" fill="#34D399" fill-opacity="0.22" filter="url(#soft)"/>

  <rect x="704" y="88" width="470" height="194" rx="18" fill="url(#card)"/>
  <rect x="724" y="116" width="134" height="26" rx="13" fill="#ECFEFF" fill-opacity="0.9"/>
  <text x="739" y="134" fill="#0F172A" font-family="Segoe UI, Arial, sans-serif" font-size="13" font-weight="700">DATA HUB</text>

  <rect x="724" y="158" width="430" height="16" rx="8" fill="#FFFFFF" fill-opacity="0.78"/>
  <rect x="724" y="186" width="390" height="12" rx="6" fill="#FFFFFF" fill-opacity="0.62"/>
  <rect x="724" y="208" width="332" height="12" rx="6" fill="#FFFFFF" fill-opacity="0.48"/>
  <rect x="724" y="234" width="184" height="24" rx="12" fill="#0F172A" fill-opacity="0.82"/>
  <text x="747" y="251" fill="#F0FDFA" font-family="Segoe UI, Arial, sans-serif" font-size="12" font-weight="700">AI-READY TOOL CALLS</text>

  <text x="86" y="130" fill="#E2E8F0" font-family="Segoe UI, Arial, sans-serif" font-size="20" font-weight="600">
    Minglebot
  </text>
  <text x="84" y="182" fill="#FFFFFF" font-family="Segoe UI, Arial, sans-serif" font-size="50" font-weight="800">
    Personal Data,
  </text>
  <text x="84" y="236" fill="#FFFFFF" font-family="Segoe UI, Arial, sans-serif" font-size="50" font-weight="800">
    Local-First,
  </text>
  <text x="84" y="289" fill="#CCFBF1" font-family="Segoe UI, Arial, sans-serif" font-size="42" font-weight="700">
    Agent-Usable
  </text>
</svg>
